<?xml version="1.0" encoding="utf-8"?>
<!-- Generator: Adobe Illustrator 24.0.2, SVG Export Plug-In . SVG Version: 6.00 Build 0)  -->
<svg version="1.1" id="Capa_1" xmlns="http://www.w3.org/2000/svg" xmlns:xlink="http://www.w3.org/1999/xlink" x="0px" y="0px"
	 viewBox="0 0 512 512" style="enable-background:new 0 0 512 512;" xml:space="preserve">
<style type="text/css">
	.st0{fill:#F0B223;}
</style>
<path class="st0" d="M484.8,158L484.8,158l-86.8,0c-15,0-27.2,12.2-27.2,27.2v99.9h-32.5c1.8-6.6,2.5-14.3,2-23.3v0
	c-0.7-38.1-7.6-70.1-20.5-95.3c-10-19.6-21.7-31.3-31.8-38.3c11.8-12.1,18.6-29.4,18.6-49.3c0-35.8-28.5-64.9-63.6-64.9
	s-63.6,29.1-63.6,64.9c0,4.1,3.4,7.5,7.5,7.5h5.1c-0.5,2.8-0.7,5.7-0.7,8.6c0,25.2,18,46.3,41.8,51c-2.5,9.3-3.7,20.2-3.7,32.6
	l-18.7,16.1l-45.5,3.7l-52.5-17.4c-4.8-1.6-10.3-3.4-15,0c-4.7,3.4-4.7,9.3-4.7,11.2v6.6c-3.9,2.2-6.5,6.5-6.5,11.3s2.6,9,6.5,11.3
	v9.9c0,4.1,3.4,7.5,7.5,7.5h8.9l-13.7,47.3c-0.1,0.2-0.1,0.5-0.2,0.7l-20.9,72.7C39.6,359,8.2,383.2,0.2,418c-0.9,4,1.6,8.1,5.6,9
	l10.6,2.5c-2.7,28.3,15.9,54.9,44.3,61.4c4.3,1,8.7,1.5,13,1.5c10.6,0,21.1-3,30.4-8.8c10.9-6.8,18.9-16.8,23.3-28.6l8.4,1.9
	c2.5,0.6,4.9,0.9,7.2-0.4c2.2-1.2,3.7-3.3,4.2-5.8c0.5-2.5,0.9-5,1.2-7.5h156.9c5,31.2,31.6,54.7,63.2,54.7
	c31.7,0,58.2-23.5,63.2-54.7h5.7l0.7,0c0.2,0,0.5,0,0.7,0c2.1,0,5.2-0.2,7.8-2.8c1.3-1.3,2.8-3.6,2.7-7.3c-0.2-7-1.3-13.8-3.1-20.3
	c6-36.3,0.2-58.4-8.3-75.6c5.4-3.5,9-9.6,9-16.5v-20.6h37.9c15,0,27.2-12.2,27.2-27.2v-87.7C512,170.2,499.8,158,484.8,158z
	 M217.3,361.3v-38.8c0-43.9,24-51.7,34.7-53h73.5c-0.3,10-2.5,17-6.8,21.5c-5,5.2-13.5,7.8-26,7.8l-26.9,0
	c-9.6,0-15.9,3.9-18.8,11.5c-2.2,5.7-2.2,12.8-2.2,22.6v28.3H217.3z M244.7,376.3v17.9h-53.5c0.6-5.6,2.3-9.9,5.2-12.8
	c4.2-4.4,10.2-5.1,13.4-5.1H244.7z M325.2,254.4L325.2,254.4l-68.2,0c-2.7-8.6-5.2-18.1-7.2-27.8l20.7-13.5
	c11.3-7.4,17.2-17.7,16.2-28.5c-0.9-9.5-7.4-18.1-16.5-21.7c-8.3-3.3-17.3-2.3-25.2,2.8c0.7-7.2,1.9-13.6,3.6-19
	c3.2-0.3,6.4-1,9.5-1.9c6.3-1.5,12.2-3.8,17.5-6.9C290,146.6,321.8,174.6,325.2,254.4z M195,71.4c3.5-24,23.7-42.4,48.1-42.4
	c26.8,0,48.6,22.4,48.6,49.9c0,22.4-10.7,40.4-28,48.3V87.8c0-6.8-2.6-15.2-15.1-16.3c-0.2,0-0.5,0-0.7,0H195z M206.3,95L206.3,95
	c0-3,0.3-5.9,1-8.6h40.2c0.5,0,0.8,0.1,1,0.2c0,0.3,0.1,0.7,0.1,1.2v43.9c-1.8,0.3-3.6,0.4-5.4,0.4h0
	C222.9,132,206.3,115.4,206.3,95z M164.9,213.5l31.7-2.6l17.8-1.4c1.6-0.1,3.1-0.8,4.3-1.8l32.1-27.6l0,0c3.1-2.7,6.4-4,9.6-4
	c1.4,0,2.9,0.3,4.2,0.8c4,1.6,6.8,5.2,7.2,9.2c0.5,5.1-2.8,10.2-9.4,14.5l-35.7,23.2l-64.4,0c-2.5,0-3.1-2.1-3.2-3.8
	C158.9,219,159,214,164.9,213.5z M108,223.8v-28.5l39.1,12.9c0,0,0,0,0,0.1v0c-2.3,3.7-3.3,8-3.1,12.3c0,1.1,0.2,2.1,0.4,3.2
	c0,0,0,0,0,0.1H108z M96.1,470.9c-9.6,6-21,7.9-32,5.4h0c-20.3-4.7-33.8-23.3-32.9-43.4l81.4,18.7
	C109.2,459.5,103.5,466.2,96.1,470.9z M133.6,441L16.9,414.2c9-24.7,33.2-41,59.7-39.6l57.2,63.9C133.8,439.4,133.7,440.2,133.6,441
	z M144.8,428.3l-56.2-62.8l24.9-86.8c0,0,0,0,0-0.1l11.5-39.8h21.3c-26.5,80.9-11.4,134.9,11.9,189.5H144.8z M162.2,238.8h66.6
	c1.4,0,2.9-0.4,4.1-1.2l3.4-2.2c1.6,7.2,3.5,14.2,5.5,20.9c-15.3,4.5-39.6,19.1-39.6,66.2V362c-5.3,1.1-11.5,3.5-16.7,9
	c-5.5,5.7-8.6,13.5-9.4,23.2h-15.1C145.8,350.2,140,303.5,162.2,238.8z M174.6,428.3c-2.8-6.4-5.4-12.7-8-19.1h77.9
	c10.1,0,15.2-4.6,15.2-13.7v-55.1l0.1-15c0.1-4.3,0.4-7.7,1.1-9.8c0.4-1,0.7-1.9,4.8-1.9l26.9,0c16.9,0,28.9-4.1,36.9-12.5
	c0.4-0.4,0.7-0.8,1.1-1.2h101.3v20.6c0,0.9-0.3,1.6-0.7,2.3c-5.8,1.3-10.1,6.5-10.1,12.7c0,3.7,1.5,7,4,9.3
	c4.9,10.2,8.9,23,8.6,41.7c-14.8-20.6-38.9-33.9-66.1-33.9c-21.9,0-42.4,8.6-57.8,24.2c-13.7,13.8-21.9,31.8-23.6,51.2L174.6,428.3z
	 M368.5,483c-23.4,0-43.2-16.9-48-39.7h96C411.8,466.1,392,483,368.5,483z M425.1,428.3H301.3c3.7-33.9,32-60.4,66.4-60.4
	c30.1,0,55.4,19.9,63.8,47.7c0,0.1,0.1,0.2,0.1,0.3c1.2,4,2,8.1,2.5,12.4L425.1,428.3z M497,272.9c0,6.7-5.5,12.2-12.2,12.2h-99
	v-99.9c0-6.7,5.5-12.2,12.2-12.2h86.8c6.7,0,12.2,5.5,12.2,12.2V272.9z"/>
</svg>
