<?xml version="1.0" encoding="utf-8"?>
<!-- Generator: Adobe Illustrator 24.3.0, SVG Export Plug-In . SVG Version: 6.00 Build 0)  -->
<svg version="1.1" id="Capa_1" xmlns="http://www.w3.org/2000/svg" xmlns:xlink="http://www.w3.org/1999/xlink" x="0px" y="0px"
	 viewBox="0 0 80 80" style="enable-background:new 0 0 80 80;" xml:space="preserve">
<style type="text/css">
	.st0{fill:#FFC800;}
</style>
<g>
	<circle class="st0" cx="40" cy="40" r="8.4"/>
	<path class="st0" d="M59.63,25.15c-0.46-1.18-1-2.01-1.88-2.9c-0.88-0.88-1.72-1.43-2.9-1.88c-0.89-0.34-2.22-0.76-4.68-0.87
		c-2.66-0.12-3.45-0.15-10.18-0.15c-6.72,0-7.52,0.03-10.18,0.15c-2.46,0.11-3.79,0.52-4.68,0.87c-1.18,0.46-2.01,1-2.9,1.88
		c-0.88,0.88-1.43,1.72-1.88,2.9c-0.34,0.89-0.76,2.22-0.87,4.68c-0.12,2.66-0.15,3.45-0.15,10.18s0.03,7.52,0.15,10.18
		c0.11,2.46,0.52,3.79,0.87,4.68c0.46,1.18,1,2.01,1.88,2.9c0.88,0.88,1.72,1.43,2.9,1.88c0.89,0.34,2.22,0.76,4.68,0.87
		c2.66,0.12,3.45,0.15,10.18,0.15s7.52-0.03,10.18-0.15c2.46-0.11,3.79-0.52,4.68-0.87c1.18-0.46,2.01-1,2.9-1.88
		c0.88-0.88,1.43-1.72,1.88-2.9c0.34-0.89,0.76-2.22,0.87-4.68c0.12-2.66,0.15-3.45,0.15-10.18s-0.03-7.52-0.15-10.18
		C60.39,27.37,59.98,26.03,59.63,25.15z M40,52.93c-7.14,0-12.93-5.79-12.93-12.93c0-7.14,5.79-12.93,12.93-12.93
		c7.14,0,12.93,5.79,12.93,12.93C52.93,47.14,47.14,52.93,40,52.93z"/>
	<path class="st0" d="M40,0C17.91,0,0,17.91,0,40c0,22.09,17.91,40,40,40c22.09,0,40-17.91,40-40C80,17.91,62.09,0,40,0z
		 M65.03,50.38c-0.12,2.68-0.55,4.51-1.17,6.11c-0.64,1.66-1.5,3.06-2.9,4.46c-1.4,1.4-2.8,2.26-4.46,2.9
		c-1.6,0.62-3.43,1.05-6.11,1.17c-2.69,0.12-3.54,0.15-10.38,0.15s-7.7-0.03-10.38-0.15c-2.68-0.12-4.51-0.55-6.11-1.17
		c-1.66-0.64-3.06-1.5-4.46-2.9c-1.4-1.4-2.26-2.8-2.9-4.46c-0.62-1.6-1.05-3.43-1.17-6.11c-0.12-2.69-0.15-3.54-0.15-10.38
		c0-6.84,0.03-7.7,0.15-10.38c0.12-2.68,0.55-4.51,1.17-6.11c0.64-1.66,1.5-3.06,2.9-4.46c1.4-1.4,2.8-2.26,4.46-2.9
		c1.6-0.62,3.43-1.05,6.11-1.17c2.69-0.12,3.54-0.15,10.38-0.15s7.7,0.03,10.38,0.15c2.68,0.12,4.51,0.55,6.11,1.17
		c1.66,0.64,3.06,1.5,4.46,2.9c1.4,1.4,2.26,2.8,2.9,4.46c0.62,1.6,1.05,3.43,1.17,6.11c0.12,2.69,0.15,3.54,0.15,10.38
		C65.19,46.84,65.16,47.7,65.03,50.38z"/>
</g>
</svg>
