<?xml version="1.0" encoding="utf-8"?>
<!-- Generator: Adobe Illustrator 24.3.0, SVG Export Plug-In . SVG Version: 6.00 Build 0)  -->
<svg version="1.1" id="Capa_1" xmlns="http://www.w3.org/2000/svg" xmlns:xlink="http://www.w3.org/1999/xlink" x="0px" y="0px"
	 viewBox="0 0 80 80" style="enable-background:new 0 0 80 80;" xml:space="preserve">
<style type="text/css">
	.st0{fill:#FFC800;}
</style>
<path class="st0" d="M39.91,0.18C17.87,0.18,0,18.05,0,40.09C0,62.13,17.87,80,39.91,80c22.04,0,39.91-17.87,39.91-39.91
	C79.82,18.05,61.95,0.18,39.91,0.18z M59.48,34.65c-1.37,0-2.71-0.18-4.03-0.49c-2.28-0.52-4.39-1.45-6.34-2.73
	c-0.1-0.07-0.21-0.21-0.32-0.16c-0.14,0.06-0.07,0.24-0.07,0.37c0,5.25,0.02,10.5-0.01,15.75c-0.02,3.67-1.19,6.95-3.59,9.75
	c-2.55,2.97-5.79,4.7-9.69,5.17c-3,0.37-5.84-0.18-8.55-1.51c-0.44-0.22-0.85-0.47-1.25-0.76c-0.12-0.11-0.25-0.22-0.37-0.33
	c0,0,0,0,0,0c-0.29-0.13-0.53-0.34-0.77-0.53c-2.41-1.91-4.11-4.32-5.05-7.26c-0.33-1.02-0.53-2.07-0.63-3.14
	c-0.07-0.77-0.08-1.55-0.03-2.32c0.12-1.78,0.54-3.49,1.27-5.12c0.77-1.7,1.82-3.21,3.15-4.51c1.55-1.52,3.35-2.66,5.4-3.39
	c1.28-0.46,2.6-0.74,3.97-0.84c0.99-0.07,1.97-0.05,2.95,0.07c0.13,0.02,0.21,0.04,0.21,0.2c-0.01,0.54-0.01,1.09-0.01,1.63
	c0.01,0.01,0.08,4.14,0.08,6.03c0,0.07,0,0.13-0.01,0.2c-0.01,0.19-0.11,0.25-0.29,0.2c-0.52-0.15-1.05-0.22-1.58-0.24
	c-0.83-0.04-1.65,0.07-2.42,0.36c-2.6,0.96-4.18,2.82-4.51,5.57c-0.32,2.7,0.74,4.87,2.99,6.43c0.19,0.13,0.38,0.25,0.56,0.4
	c0.04,0.04,0.08,0.08,0.13,0.12c0.52,0.21,1.05,0.42,1.6,0.53c1.77,0.35,3.43,0.08,4.96-0.86c1.77-1.09,2.81-2.69,3.18-4.73
	c0.07-0.39,0.08-0.78,0.08-1.17c0-10.54,0-21.08,0-31.62c0-0.49-0.07-0.43,0.42-0.43c2.43,0,4.86,0,7.29,0c0.06,0,0.11,0,0.17,0
	c0.25,0,0.25,0,0.25,0.26c0,0.56,0.23,1.89,0.25,1.99c1.05,5.33,7.26,8.59,9.18,8.88c0.53,0.08,1.06,0.14,1.59,0.14
	c0.22,0,0.23,0.01,0.23,0.22c0,0.5,0.1,5.59,0.09,7.46C59.97,34.63,59.91,34.65,59.48,34.65z"/>
</svg>
